<?xml version="1.0" encoding="utf-8" ?>
<svg baseProfile="full" height="6in" version="1.1" viewBox="0 0 5 6" width="5in" xmlns="http://www.w3.org/2000/svg" xmlns:ev="http://www.w3.org/2001/xml-events" xmlns:xlink="http://www.w3.org/1999/xlink"><defs /><rect fill="none" height="3" stroke="red" width="2" x="0.5" y="0.5" /><path d="m 1 1 l 0.018384 0 -0.011007 0.003747 -0.003747 0.007377 0 0.007377 0.003747 0.007377 0.007377 0.00363 0.014754 0.003747 0.011124 0.003747 0.00726 0.00726 0.003747 0.007494 0 0.011007 -0.003747 0.007377 -0.00363 0.003689 -0.011124 0.003689 -0.014754 0 -0.011007 -0.003689 -0.003747 -0.003689 -0.00363 -0.007377 0 -0.011007 0.00363 -0.007494 0.007494 -0.00726 0.011007 -0.003747 0.014754 -0.003747 0.007377 -0.00363 0.00363 -0.007377 0 -0.007377 -0.00363 -0.007377 -0.011124 -0.003747 m -0.014754 0" fill="none" stroke="green" /></svg>