<?xml version="1.0" encoding="utf-8" ?>
<svg baseProfile="full" height="4.0in" version="1.1" viewBox="0 0 144.0 384.0" width="1.5in" xmlns="http://www.w3.org/2000/svg" xmlns:ev="http://www.w3.org/2001/xml-events" xmlns:xlink="http://www.w3.org/1999/xlink"><defs /><polyline fill="none" points="27.428571428571427,11.657142857142858 27.428571428571427,20.65714285714286" stroke="green" /><polyline fill="none" points="24.428571428571427,11.657142857142858 30.428571428571427,11.657142857142858" stroke="green" /><polyline fill="none" points="32.57142857142857,14.657142857142858 32.57142857142857,20.65714285714286" stroke="green" /><polyline fill="none" points="32.57142857142857,17.228571428571428 33.0,15.942857142857143 33.85714285714286,15.085714285714287 34.714285714285715,14.657142857142858 36.0,14.657142857142858" stroke="green" /><polyline fill="none" points="42.85714285714286,14.657142857142858 42.85714285714286,20.65714285714286" stroke="green" /><polyline fill="none" points="42.85714285714286,15.942857142857143 42.0,15.085714285714287 41.142857142857146,14.657142857142858 39.85714285714286,14.657142857142858 39.0,15.085714285714287 38.142857142857146,15.942857142857143 37.714285714285715,17.228571428571428 37.714285714285715,18.085714285714285 38.142857142857146,19.371428571428574 39.0,20.228571428571428 39.85714285714286,20.65714285714286 41.142857142857146,20.65714285714286 42.0,20.228571428571428 42.85714285714286,19.371428571428574" stroke="green" /><polyline fill="none" points="46.285714285714285,14.657142857142858 46.285714285714285,20.65714285714286" stroke="green" /><polyline fill="none" points="46.285714285714285,16.371428571428574 47.57142857142857,15.085714285714287 48.42857142857142,14.657142857142858 49.71428571428571,14.657142857142858 50.57142857142857,15.085714285714287 51.0,16.371428571428574 51.0,20.65714285714286" stroke="green" /><polyline fill="none" points="58.71428571428571,15.942857142857143 58.28571428571428,15.085714285714287 56.99999999999999,14.657142857142858 55.71428571428571,14.657142857142858 54.42857142857142,15.085714285714287 53.99999999999999,15.942857142857143 54.42857142857142,16.8 55.28571428571428,17.228571428571428 57.42857142857142,17.65714285714286 58.28571428571428,18.085714285714285 58.71428571428571,18.942857142857143 58.71428571428571,19.371428571428574 58.28571428571428,20.228571428571428 56.99999999999999,20.65714285714286 55.71428571428571,20.65714285714286 54.42857142857142,20.228571428571428 53.99999999999999,19.371428571428574" stroke="green" /><polyline fill="none" points="61.71428571428571,14.657142857142858 61.71428571428571,23.65714285714286" stroke="green" /><polyline fill="none" points="61.71428571428571,15.942857142857143 62.57142857142856,15.085714285714287 63.42857142857142,14.657142857142858 64.71428571428571,14.657142857142858 65.57142857142857,15.085714285714287 66.42857142857142,15.942857142857143 66.85714285714285,17.228571428571428 66.85714285714285,18.085714285714285 66.42857142857142,19.371428571428574 65.57142857142857,20.228571428571428 64.71428571428571,20.65714285714286 63.42857142857142,20.65714285714286 62.57142857142856,20.228571428571428 61.71428571428571,19.371428571428574" stroke="green" /><polyline fill="none" points="74.57142857142857,14.657142857142858 74.57142857142857,20.65714285714286" stroke="green" /><polyline fill="none" points="74.57142857142857,15.942857142857143 73.71428571428571,15.085714285714287 72.85714285714285,14.657142857142858 71.57142857142857,14.657142857142858 70.71428571428571,15.085714285714287 69.85714285714285,15.942857142857143 69.42857142857143,17.228571428571428 69.42857142857143,18.085714285714285 69.85714285714285,19.371428571428574 70.71428571428571,20.228571428571428 71.57142857142857,20.65714285714286 72.85714285714285,20.65714285714286 73.71428571428571,20.228571428571428 74.57142857142857,19.371428571428574" stroke="green" /><polyline fill="none" points="77.99999999999999,14.657142857142858 77.99999999999999,20.65714285714286" stroke="green" /><polyline fill="none" points="77.99999999999999,17.228571428571428 78.42857142857142,15.942857142857143 79.28571428571428,15.085714285714287 80.14285714285714,14.657142857142858 81.42857142857142,14.657142857142858" stroke="green" /><polyline fill="none" points="83.14285714285714,17.228571428571428 88.28571428571428,17.228571428571428 88.28571428571428,16.371428571428574 87.85714285714285,15.514285714285716 87.42857142857142,15.085714285714287 86.57142857142856,14.657142857142858 85.28571428571428,14.657142857142858 84.42857142857142,15.085714285714287 83.57142857142856,15.942857142857143 83.14285714285714,17.228571428571428 83.14285714285714,18.085714285714285 83.57142857142856,19.371428571428574 84.42857142857142,20.228571428571428 85.28571428571428,20.65714285714286 86.57142857142856,20.65714285714286 87.42857142857142,20.228571428571428 88.28571428571428,19.371428571428574" stroke="green" /><polyline fill="none" points="91.28571428571426,14.657142857142858 91.28571428571426,20.65714285714286" stroke="green" /><polyline fill="none" points="91.28571428571426,16.371428571428574 92.57142857142856,15.085714285714287 93.42857142857142,14.657142857142858 94.7142857142857,14.657142857142858 95.57142857142856,15.085714285714287 95.99999999999999,16.371428571428574 95.99999999999999,20.65714285714286" stroke="green" /><polyline fill="none" points="99.85714285714283,11.657142857142858 99.85714285714283,18.942857142857143 100.28571428571426,20.228571428571428 101.14285714285712,20.65714285714286 101.99999999999999,20.65714285714286" stroke="green" /><polyline fill="none" points="98.57142857142856,14.657142857142858 101.57142857142856,14.657142857142858" stroke="green" /><polyline fill="none" points="113.57142857142856,11.657142857142858 110.14285714285712,20.65714285714286" stroke="green" /><polyline fill="none" points="113.57142857142856,11.657142857142858 116.99999999999999,20.65714285714286" stroke="green" /><polyline fill="none" points="111.4285714285714,17.65714285714286 115.7142857142857,17.65714285714286" stroke="green" /><polyline fill="none" points="123.85714285714283,15.942857142857143 122.99999999999997,15.085714285714287 122.14285714285711,14.657142857142858 120.85714285714283,14.657142857142858 119.99999999999997,15.085714285714287 119.14285714285711,15.942857142857143 118.7142857142857,17.228571428571428 118.7142857142857,18.085714285714285 119.14285714285711,19.371428571428574 119.99999999999997,20.228571428571428 120.85714285714283,20.65714285714286 122.14285714285711,20.65714285714286 122.99999999999997,20.228571428571428 123.85714285714283,19.371428571428574" stroke="green" /><polyline fill="none" points="126.85714285714282,14.657142857142858 126.85714285714282,20.65714285714286" stroke="green" /><polyline fill="none" points="126.85714285714282,17.228571428571428 127.28571428571425,15.942857142857143 128.1428571428571,15.085714285714287 128.99999999999997,14.657142857142858 130.28571428571425,14.657142857142858" stroke="green" /><polyline fill="none" points="131.57142857142856,14.657142857142858 134.1428571428571,20.65714285714286" stroke="green" /><polyline fill="none" points="136.7142857142857,14.657142857142858 134.1428571428571,20.65714285714286 133.28571428571428,22.371428571428574 132.42857142857142,23.228571428571428 131.57142857142856,23.65714285714286 131.1428571428571,23.65714285714286" stroke="green" /><polyline fill="none" points="139.28571428571428,11.657142857142858 139.28571428571428,20.65714285714286" stroke="green" /><polyline fill="none" points="142.28571428571425,11.657142857142858 142.7142857142857,12.085714285714285 143.1428571428571,11.657142857142858 142.7142857142857,11.22857142857143 142.28571428571425,11.657142857142858" stroke="green" /><polyline fill="none" points="142.7142857142857,14.657142857142858 142.7142857142857,20.65714285714286" stroke="green" /><polyline fill="none" points="150.8571428571428,15.942857142857143 149.99999999999997,15.085714285714287 149.1428571428571,14.657142857142858 147.8571428571428,14.657142857142858 146.99999999999997,15.085714285714287 146.1428571428571,15.942857142857143 145.71428571428567,17.228571428571428 145.71428571428567,18.085714285714285 146.1428571428571,19.371428571428574 146.99999999999997,20.228571428571428 147.8571428571428,20.65714285714286 149.1428571428571,20.65714285714286 149.99999999999997,20.228571428571428 150.8571428571428,19.371428571428574" stroke="green" /><polyline fill="none" points="161.57142857142856,13.371428571428572 162.4285714285714,12.942857142857143 163.7142857142857,11.657142857142858 163.7142857142857,20.65714285714286" stroke="green" /><polyline fill="none" points="176.14285714285714,9.942857142857143 168.42857142857142,23.65714285714286" stroke="green" /><polyline fill="none" points="180.4285714285714,11.657142857142858 179.1428571428571,12.085714285714285 178.7142857142857,12.942857142857143 178.7142857142857,13.8 179.1428571428571,14.657142857142858 179.99999999999997,15.085714285714287 181.7142857142857,15.514285714285716 182.99999999999997,15.942857142857143 183.85714285714283,16.8 184.28571428571425,17.65714285714286 184.28571428571425,18.942857142857143 183.85714285714283,19.8 183.4285714285714,20.228571428571428 182.1428571428571,20.65714285714286 180.4285714285714,20.65714285714286 179.1428571428571,20.228571428571428 178.7142857142857,19.8 178.28571428571425,18.942857142857143 178.28571428571425,17.65714285714286 178.7142857142857,16.8 179.57142857142856,15.942857142857143 180.85714285714283,15.514285714285716 182.57142857142856,15.085714285714287 183.4285714285714,14.657142857142858 183.85714285714283,13.8 183.85714285714283,12.942857142857143 183.4285714285714,12.085714285714285 182.1428571428571,11.657142857142858 180.4285714285714,11.657142857142858" stroke="green" /><polyline fill="none" points="187.28571428571428,11.657142857142858 187.28571428571428,14.657142857142858" stroke="green" /><polyline fill="none" points="190.7142857142857,11.657142857142858 190.7142857142857,14.657142857142858" stroke="green" /><polyline fill="none" points="25.37142857142857,29.485714285714288 25.37142857142857,36.68571428571429" stroke="green" /><polyline fill="none" points="25.37142857142857,29.485714285714288 29.82857142857143,29.485714285714288" stroke="green" /><polyline fill="none" points="25.37142857142857,32.91428571428572 28.114285714285714,32.91428571428572" stroke="green" /><polyline fill="none" points="32.91428571428571,31.885714285714286 32.22857142857143,32.22857142857143 31.54285714285714,32.91428571428572 31.2,33.94285714285714 31.2,34.62857142857143 31.54285714285714,35.65714285714286 32.22857142857143,36.34285714285714 32.91428571428571,36.68571428571429 33.94285714285714,36.68571428571429 34.628571428571426,36.34285714285714 35.31428571428572,35.65714285714286 35.65714285714286,34.62857142857143 35.65714285714286,33.94285714285714 35.31428571428572,32.91428571428572 34.628571428571426,32.22857142857143 33.94285714285714,31.885714285714286 32.91428571428571,31.885714285714286" stroke="green" /><polyline fill="none" points="41.82857142857143,32.91428571428572 41.14285714285714,32.22857142857143 40.457142857142856,31.885714285714286 39.42857142857142,31.885714285714286 38.74285714285714,32.22857142857143 38.05714285714286,32.91428571428572 37.714285714285715,33.94285714285714 37.714285714285715,34.62857142857143 38.05714285714286,35.65714285714286 38.74285714285714,36.34285714285714 39.42857142857142,36.68571428571429 40.457142857142856,36.68571428571429 41.14285714285714,36.34285714285714 41.82857142857143,35.65714285714286" stroke="green" /><polyline fill="none" points="44.22857142857143,31.885714285714286 44.22857142857143,35.31428571428572 44.57142857142857,36.34285714285714 45.25714285714285,36.68571428571429 46.285714285714285,36.68571428571429 46.97142857142857,36.34285714285714 48.0,35.31428571428572" stroke="green" /><polyline fill="none" points="48.0,31.885714285714286 48.0,36.68571428571429" stroke="green" /><polyline fill="none" points="54.171428571428564,32.91428571428572 53.82857142857142,32.22857142857143 52.8,31.885714285714286 51.771428571428565,31.885714285714286 50.74285714285714,32.22857142857143 50.4,32.91428571428572 50.74285714285714,33.6 51.42857142857142,33.94285714285714 53.14285714285714,34.285714285714285 53.82857142857142,34.62857142857143 54.171428571428564,35.31428571428572 54.171428571428564,35.65714285714286 53.82857142857142,36.34285714285714 52.8,36.68571428571429 51.771428571428565,36.68571428571429 50.74285714285714,36.34285714285714 50.4,35.65714285714286" stroke="green" /><polyline fill="none" points="63.77142857142857,29.485714285714288 62.74285714285714,29.82857142857143 62.05714285714286,30.857142857142858 61.714285714285715,32.57142857142857 61.714285714285715,33.6 62.05714285714286,35.31428571428572 62.74285714285714,36.34285714285714 63.77142857142857,36.68571428571429 64.45714285714286,36.68571428571429 65.48571428571428,36.34285714285714 66.17142857142856,35.31428571428572 66.5142857142857,33.6 66.5142857142857,32.57142857142857 66.17142857142856,30.857142857142858 65.48571428571428,29.82857142857143 64.45714285714286,29.485714285714288 63.77142857142857,29.485714285714288" stroke="green" /><polyline fill="none" points="68.91428571428571,34.971428571428575 68.57142857142857,35.31428571428572 68.91428571428571,35.65714285714286 69.25714285714285,35.31428571428572 68.91428571428571,34.971428571428575" stroke="green" /><polyline fill="none" points="71.65714285714286,31.200000000000003 71.65714285714286,30.857142857142858 72.0,30.17142857142857 72.34285714285716,29.82857142857143 73.02857142857144,29.485714285714288 74.4,29.485714285714288 75.08571428571429,29.82857142857143 75.42857142857143,30.17142857142857 75.77142857142857,30.857142857142858 75.77142857142857,31.542857142857144 75.42857142857143,32.22857142857143 74.74285714285715,33.25714285714286 71.31428571428572,36.68571428571429 76.11428571428573,36.68571428571429" stroke="green" /><polyline fill="none" points="79.20000000000002,30.857142857142858 79.8857142857143,30.514285714285716 80.91428571428573,29.485714285714288 80.91428571428573,36.68571428571429" stroke="green" /><polyline fill="none" points="73.71428571428571,45.25714285714287 73.71428571428571,54.25714285714286" stroke="green" /><polyline fill="none" points="73.71428571428571,45.25714285714287 77.57142857142857,45.25714285714287 78.85714285714286,45.68571428571429 79.28571428571429,46.11428571428572 79.71428571428571,46.971428571428575 79.71428571428571,48.25714285714286 79.28571428571429,49.11428571428572 78.85714285714286,49.54285714285715 77.57142857142857,49.971428571428575 73.71428571428571,49.971428571428575" stroke="green" /><polyline fill="none" points="84.42857142857143,48.25714285714286 83.57142857142857,48.68571428571429 82.71428571428571,49.54285714285715 82.28571428571429,50.828571428571436 82.28571428571429,51.68571428571429 82.71428571428571,52.971428571428575 83.57142857142857,53.828571428571436 84.42857142857143,54.25714285714286 85.71428571428571,54.25714285714286 86.57142857142857,53.828571428571436 87.42857142857143,52.971428571428575 87.85714285714286,51.68571428571429 87.85714285714286,50.828571428571436 87.42857142857143,49.54285714285715 86.57142857142857,48.68571428571429 85.71428571428571,48.25714285714286 84.42857142857143,48.25714285714286" stroke="green" /><polyline fill="none" points="90.42857142857143,48.25714285714286 92.14285714285714,54.25714285714286" stroke="green" /><polyline fill="none" points="93.85714285714285,48.25714285714286 92.14285714285714,54.25714285714286" stroke="green" /><polyline fill="none" points="93.85714285714285,48.25714285714286 95.57142857142857,54.25714285714286" stroke="green" /><polyline fill="none" points="97.28571428571428,48.25714285714286 95.57142857142857,54.25714285714286" stroke="green" /><polyline fill="none" points="99.85714285714286,50.828571428571436 105.0,50.828571428571436 105.0,49.971428571428575 104.57142857142857,49.11428571428572 104.14285714285714,48.68571428571429 103.28571428571428,48.25714285714286 102.0,48.25714285714286 101.14285714285714,48.68571428571429 100.28571428571428,49.54285714285715 99.85714285714286,50.828571428571436 99.85714285714286,51.68571428571429 100.28571428571428,52.971428571428575 101.14285714285714,53.828571428571436 102.0,54.25714285714286 103.28571428571428,54.25714285714286 104.14285714285714,53.828571428571436 105.0,52.971428571428575" stroke="green" /><polyline fill="none" points="107.99999999999999,48.25714285714286 107.99999999999999,54.25714285714286" stroke="green" /><polyline fill="none" points="107.99999999999999,50.828571428571436 108.42857142857142,49.54285714285715 109.28571428571428,48.68571428571429 110.14285714285714,48.25714285714286 111.42857142857142,48.25714285714286" stroke="green" /><polyline fill="none" points="73.71428571428571,62.057142857142864 73.71428571428571,71.05714285714286" stroke="green" /><polyline fill="none" points="73.71428571428571,62.057142857142864 79.28571428571429,62.057142857142864" stroke="green" /><polyline fill="none" points="73.71428571428571,66.34285714285714 77.14285714285714,66.34285714285714" stroke="green" /><polyline fill="none" points="81.42857142857142,65.05714285714286 81.42857142857142,69.34285714285714 81.85714285714285,70.62857142857143 82.71428571428571,71.05714285714286 84.0,71.05714285714286 84.85714285714285,70.62857142857143 86.14285714285714,69.34285714285714" stroke="green" /><polyline fill="none" points="86.14285714285714,65.05714285714286 86.14285714285714,71.05714285714286" stroke="green" /><polyline fill="none" points="89.57142857142856,62.057142857142864 89.57142857142856,71.05714285714286" stroke="green" /><polyline fill="none" points="92.99999999999999,62.057142857142864 92.99999999999999,71.05714285714286" stroke="green" /><polyline fill="none" points="31.285714285714285,92.14285714285714 30.428571428571427,91.28571428571429 29.142857142857142,90.85714285714286 27.428571428571427,90.85714285714286 26.142857142857142,91.28571428571429 25.285714285714285,92.14285714285714 25.285714285714285,93.0 25.714285714285715,93.85714285714286 26.142857142857142,94.28571428571429 27.0,94.71428571428571 29.57142857142857,95.57142857142857 30.428571428571427,96.0 30.857142857142858,96.42857142857143 31.285714285714285,97.28571428571429 31.285714285714285,98.57142857142857 30.428571428571427,99.42857142857143 29.142857142857142,99.85714285714286 27.428571428571427,99.85714285714286 26.142857142857142,99.42857142857143 25.285714285714285,98.57142857142857" stroke="green" /><polyline fill="none" points="34.285714285714285,93.85714285714286 34.285714285714285,102.85714285714286" stroke="green" /><polyline fill="none" points="34.285714285714285,95.14285714285714 35.14285714285714,94.28571428571429 36.0,93.85714285714286 37.285714285714285,93.85714285714286 38.14285714285714,94.28571428571429 39.0,95.14285714285714 39.42857142857142,96.42857142857143 39.42857142857142,97.28571428571429 39.0,98.57142857142857 38.14285714285714,99.42857142857143 37.285714285714285,99.85714285714286 36.0,99.85714285714286 35.14285714285714,99.42857142857143 34.285714285714285,98.57142857142857" stroke="green" /><polyline fill="none" points="41.99999999999999,96.42857142857143 47.14285714285714,96.42857142857143 47.14285714285714,95.57142857142857 46.71428571428571,94.71428571428571 46.28571428571428,94.28571428571429 45.42857142857142,93.85714285714286 44.14285714285714,93.85714285714286 43.28571428571428,94.28571428571429 42.42857142857142,95.14285714285714 41.99999999999999,96.42857142857143 41.99999999999999,97.28571428571429 42.42857142857142,98.57142857142857 43.28571428571428,99.42857142857143 44.14285714285714,99.85714285714286 45.42857142857142,99.85714285714286 46.28571428571428,99.42857142857143 47.14285714285714,98.57142857142857" stroke="green" /><polyline fill="none" points="49.71428571428571,96.42857142857143 54.857142857142854,96.42857142857143 54.857142857142854,95.57142857142857 54.42857142857142,94.71428571428571 53.99999999999999,94.28571428571429 53.14285714285714,93.85714285714286 51.857142857142854,93.85714285714286 50.99999999999999,94.28571428571429 50.14285714285714,95.14285714285714 49.71428571428571,96.42857142857143 49.71428571428571,97.28571428571429 50.14285714285714,98.57142857142857 50.99999999999999,99.42857142857143 51.857142857142854,99.85714285714286 53.14285714285714,99.85714285714286 53.99999999999999,99.42857142857143 54.857142857142854,98.57142857142857" stroke="green" /><polyline fill="none" points="62.57142857142857,90.85714285714286 62.57142857142857,99.85714285714286" stroke="green" /><polyline fill="none" points="62.57142857142857,95.14285714285714 61.71428571428571,94.28571428571429 60.857142857142854,93.85714285714286 59.57142857142857,93.85714285714286 58.71428571428571,94.28571428571429 57.857142857142854,95.14285714285714 57.42857142857142,96.42857142857143 57.42857142857142,97.28571428571429 57.857142857142854,98.57142857142857 58.71428571428571,99.42857142857143 59.57142857142857,99.85714285714286 60.857142857142854,99.85714285714286 61.71428571428571,99.42857142857143 62.57142857142857,98.57142857142857" stroke="green" /><polyline fill="none" points="26.57142857142857,109.37142857142857 27.428571428571427,108.94285714285714 28.714285714285715,107.65714285714286 28.714285714285715,116.65714285714286" stroke="green" /><polyline fill="none" points="34.714285714285715,107.65714285714286 39.42857142857142,107.65714285714286 36.857142857142854,111.08571428571429 38.14285714285714,111.08571428571429 39.0,111.5142857142857 39.42857142857142,111.94285714285714 39.857142857142854,113.22857142857143 39.857142857142854,114.08571428571429 39.42857142857142,115.37142857142857 38.57142857142857,116.22857142857143 37.285714285714285,116.65714285714286 36.0,116.65714285714286 34.714285714285715,116.22857142857143 34.285714285714285,115.8 33.857142857142854,114.94285714285714" stroke="green" /><polyline fill="none" points="44.99999999999999,107.65714285714286 43.71428571428571,108.08571428571429 42.857142857142854,109.37142857142857 42.42857142857142,111.5142857142857 42.42857142857142,112.8 42.857142857142854,114.94285714285714 43.71428571428571,116.22857142857143 44.99999999999999,116.65714285714286 45.857142857142854,116.65714285714286 47.14285714285714,116.22857142857143 47.99999999999999,114.94285714285714 48.42857142857142,112.8 48.42857142857142,111.5142857142857 47.99999999999999,109.37142857142857 47.14285714285714,108.08571428571429 45.857142857142854,107.65714285714286 44.99999999999999,107.65714285714286" stroke="green" /><polyline fill="none" points="26.57142857142857,181.3714285714286 27.428571428571427,180.94285714285715 28.714285714285715,179.65714285714287 28.714285714285715,188.65714285714287" stroke="green" /><polyline fill="none" points="39.0,179.65714285714287 34.714285714285715,179.65714285714287 34.285714285714285,183.51428571428573 34.714285714285715,183.0857142857143 36.0,182.65714285714287 37.285714285714285,182.65714285714287 38.57142857142857,183.0857142857143 39.42857142857142,183.94285714285715 39.857142857142854,185.22857142857143 39.857142857142854,186.0857142857143 39.42857142857142,187.3714285714286 38.57142857142857,188.22857142857143 37.285714285714285,188.65714285714287 36.0,188.65714285714287 34.714285714285715,188.22857142857143 34.285714285714285,187.8 33.857142857142854,186.94285714285715" stroke="green" /><polyline fill="none" points="44.99999999999999,179.65714285714287 43.71428571428571,180.0857142857143 42.857142857142854,181.3714285714286 42.42857142857142,183.51428571428573 42.42857142857142,184.8 42.857142857142854,186.94285714285715 43.71428571428571,188.22857142857143 44.99999999999999,188.65714285714287 45.857142857142854,188.65714285714287 47.14285714285714,188.22857142857143 47.99999999999999,186.94285714285715 48.42857142857142,184.8 48.42857142857142,183.51428571428573 47.99999999999999,181.3714285714286 47.14285714285714,180.0857142857143 45.857142857142854,179.65714285714287 44.99999999999999,179.65714285714287" stroke="green" /><polyline fill="none" points="26.57142857142857,253.3714285714286 27.428571428571427,252.94285714285715 28.714285714285715,251.65714285714287 28.714285714285715,260.65714285714284" stroke="green" /><polyline fill="none" points="39.857142857142854,251.65714285714287 35.57142857142857,260.65714285714284" stroke="green" /><polyline fill="none" points="33.857142857142854,251.65714285714287 39.857142857142854,251.65714285714287" stroke="green" /><polyline fill="none" points="44.99999999999999,251.65714285714287 43.71428571428571,252.0857142857143 42.857142857142854,253.3714285714286 42.42857142857142,255.51428571428573 42.42857142857142,256.8 42.857142857142854,258.9428571428572 43.71428571428571,260.22857142857146 44.99999999999999,260.65714285714284 45.857142857142854,260.65714285714284 47.14285714285714,260.22857142857146 47.99999999999999,258.9428571428572 48.42857142857142,256.8 48.42857142857142,255.51428571428573 47.99999999999999,253.3714285714286 47.14285714285714,252.0857142857143 45.857142857142854,251.65714285714287 44.99999999999999,251.65714285714287" stroke="green" /><polyline fill="none" points="26.57142857142857,325.37142857142857 27.428571428571427,324.9428571428572 28.714285714285715,323.65714285714284 28.714285714285715,332.65714285714284" stroke="green" /><polyline fill="none" points="39.42857142857142,326.65714285714284 39.0,327.9428571428572 38.14285714285714,328.8 36.857142857142854,329.22857142857146 36.42857142857142,329.22857142857146 35.14285714285714,328.8 34.285714285714285,327.9428571428572 33.857142857142854,326.65714285714284 33.857142857142854,326.22857142857146 34.285714285714285,324.9428571428572 35.14285714285714,324.0857142857143 36.42857142857142,323.65714285714284 36.857142857142854,323.65714285714284 38.14285714285714,324.0857142857143 39.0,324.9428571428572 39.42857142857142,326.65714285714284 39.42857142857142,328.8 39.0,330.9428571428572 38.14285714285714,332.22857142857146 36.857142857142854,332.65714285714284 36.0,332.65714285714284 34.714285714285715,332.22857142857146 34.285714285714285,331.37142857142857" stroke="green" /><polyline fill="none" points="44.99999999999999,323.65714285714284 43.71428571428571,324.0857142857143 42.857142857142854,325.37142857142857 42.42857142857142,327.51428571428573 42.42857142857142,328.8 42.857142857142854,330.9428571428572 43.71428571428571,332.22857142857146 44.99999999999999,332.65714285714284 45.857142857142854,332.65714285714284 47.14285714285714,332.22857142857146 47.99999999999999,330.9428571428572 48.42857142857142,328.8 48.42857142857142,327.51428571428573 47.99999999999999,325.37142857142857 47.14285714285714,324.0857142857143 45.857142857142854,323.65714285714284 44.99999999999999,323.65714285714284" stroke="green" /><rect fill="none" height="48.0" stroke="#FF0000" width="48.0" x="72.0" y="96.0" /><rect fill="none" height="48.0" stroke="#FF0002" width="48.0" x="72.0" y="168.0" /><rect fill="none" height="48.0" stroke="#FF0004" width="48.0" x="72.0" y="240.0" /><rect fill="none" height="48.0" stroke="#FF0006" width="48.0" x="72.0" y="312.0" /><rect fill="none" height="384.0" stroke="#FF0008" width="144.0" x="0" y="0" /></svg>