<?xml version="1.0" encoding="utf-8" ?>
<svg baseProfile="full" height="100" version="1.1" width="500" xmlns="http://www.w3.org/2000/svg" xmlns:ev="http://www.w3.org/2001/xml-events" xmlns:xlink="http://www.w3.org/1999/xlink"><defs /><polyline fill="none" points="25.714285714285715,32.85714285714286 25.714285714285715,62.85714285714286" stroke="blue" /><polyline fill="none" points="25.714285714285715,32.85714285714286 38.57142857142857,32.85714285714286 42.85714285714286,34.285714285714285 44.285714285714285,35.714285714285715 45.714285714285715,38.57142857142857 45.714285714285715,42.857142857142854 44.285714285714285,45.714285714285715 42.85714285714286,47.142857142857146 38.57142857142857,48.57142857142857 25.714285714285715,48.57142857142857" stroke="blue" /><polyline fill="none" points="61.42857142857143,42.857142857142854 58.57142857142857,44.285714285714285 55.714285714285715,47.142857142857146 54.285714285714285,51.42857142857143 54.285714285714285,54.285714285714285 55.714285714285715,58.57142857142857 58.57142857142857,61.42857142857143 61.42857142857143,62.85714285714286 65.71428571428572,62.85714285714286 68.57142857142857,61.42857142857143 71.42857142857143,58.57142857142857 72.85714285714286,54.285714285714285 72.85714285714286,51.42857142857143 71.42857142857143,47.142857142857146 68.57142857142857,44.285714285714285 65.71428571428572,42.857142857142854 61.42857142857143,42.857142857142854" stroke="blue" /><polyline fill="none" points="81.42857142857143,42.857142857142854 87.14285714285714,62.85714285714286" stroke="blue" /><polyline fill="none" points="92.85714285714286,42.857142857142854 87.14285714285714,62.85714285714286" stroke="blue" /><polyline fill="none" points="92.85714285714286,42.857142857142854 98.57142857142857,62.85714285714286" stroke="blue" /><polyline fill="none" points="104.28571428571428,42.857142857142854 98.57142857142857,62.85714285714286" stroke="blue" /><polyline fill="none" points="112.85714285714286,51.42857142857143 130.0,51.42857142857143 130.0,48.57142857142857 128.57142857142856,45.714285714285715 127.14285714285714,44.285714285714285 124.28571428571428,42.857142857142854 120.0,42.857142857142854 117.14285714285714,44.285714285714285 114.28571428571428,47.142857142857146 112.85714285714286,51.42857142857143 112.85714285714286,54.285714285714285 114.28571428571428,58.57142857142857 117.14285714285714,61.42857142857143 120.0,62.85714285714286 124.28571428571428,62.85714285714286 127.14285714285714,61.42857142857143 130.0,58.57142857142857" stroke="blue" /><polyline fill="none" points="140.0,42.857142857142854 140.0,62.85714285714286" stroke="blue" /><polyline fill="none" points="140.0,51.42857142857143 141.42857142857142,47.142857142857146 144.28571428571428,44.285714285714285 147.14285714285714,42.857142857142854 151.42857142857142,42.857142857142854" stroke="blue" /></svg>