<?xml version="1.0" encoding="utf-8" ?>
<svg baseProfile="full" height="100" version="1.1" width="500" xmlns="http://www.w3.org/2000/svg" xmlns:ev="http://www.w3.org/2001/xml-events" xmlns:xlink="http://www.w3.org/1999/xlink"><defs /><line fill="none" stroke="blue" x1="25.714285714285715" x2="25.714285714285715" y1="32.85714285714286" y2="62.85714285714286" /><line fill="none" stroke="blue" x1="45.714285714285715" x2="45.714285714285715" y1="32.85714285714286" y2="62.85714285714286" /><line fill="none" stroke="blue" x1="25.714285714285715" x2="45.714285714285715" y1="47.142857142857146" y2="47.142857142857146" /><line fill="none" stroke="blue" x1="55.714285714285715" x2="72.85714285714286" y1="51.42857142857143" y2="51.42857142857143" /><line fill="none" stroke="blue" x1="72.85714285714286" x2="72.85714285714286" y1="51.42857142857143" y2="48.57142857142857" /><line fill="none" stroke="blue" x1="72.85714285714286" x2="71.42857142857143" y1="48.57142857142857" y2="45.714285714285715" /><line fill="none" stroke="blue" x1="71.42857142857143" x2="70.0" y1="45.714285714285715" y2="44.285714285714285" /><line fill="none" stroke="blue" x1="70.0" x2="67.14285714285714" y1="44.285714285714285" y2="42.857142857142854" /><line fill="none" stroke="blue" x1="67.14285714285714" x2="62.85714285714286" y1="42.857142857142854" y2="42.857142857142854" /><line fill="none" stroke="blue" x1="62.85714285714286" x2="60.0" y1="42.857142857142854" y2="44.285714285714285" /><line fill="none" stroke="blue" x1="60.0" x2="57.142857142857146" y1="44.285714285714285" y2="47.142857142857146" /><line fill="none" stroke="blue" x1="57.142857142857146" x2="55.714285714285715" y1="47.142857142857146" y2="51.42857142857143" /><line fill="none" stroke="blue" x1="55.714285714285715" x2="55.714285714285715" y1="51.42857142857143" y2="54.285714285714285" /><line fill="none" stroke="blue" x1="55.714285714285715" x2="57.142857142857146" y1="54.285714285714285" y2="58.57142857142857" /><line fill="none" stroke="blue" x1="57.142857142857146" x2="60.0" y1="58.57142857142857" y2="61.42857142857143" /><line fill="none" stroke="blue" x1="60.0" x2="62.85714285714286" y1="61.42857142857143" y2="62.85714285714286" /><line fill="none" stroke="blue" x1="62.85714285714286" x2="67.14285714285714" y1="62.85714285714286" y2="62.85714285714286" /><line fill="none" stroke="blue" x1="67.14285714285714" x2="70.0" y1="62.85714285714286" y2="61.42857142857143" /><line fill="none" stroke="blue" x1="70.0" x2="72.85714285714286" y1="61.42857142857143" y2="58.57142857142857" /><line fill="none" stroke="blue" x1="82.85714285714285" x2="82.85714285714285" y1="32.85714285714286" y2="62.85714285714286" /><line fill="none" stroke="blue" x1="94.28571428571428" x2="94.28571428571428" y1="32.85714285714286" y2="62.85714285714286" /><line fill="none" stroke="blue" x1="111.42857142857143" x2="108.57142857142857" y1="42.857142857142854" y2="44.285714285714285" /><line fill="none" stroke="blue" x1="108.57142857142857" x2="105.71428571428571" y1="44.285714285714285" y2="47.142857142857146" /><line fill="none" stroke="blue" x1="105.71428571428571" x2="104.28571428571429" y1="47.142857142857146" y2="51.42857142857143" /><line fill="none" stroke="blue" x1="104.28571428571429" x2="104.28571428571429" y1="51.42857142857143" y2="54.285714285714285" /><line fill="none" stroke="blue" x1="104.28571428571429" x2="105.71428571428571" y1="54.285714285714285" y2="58.57142857142857" /><line fill="none" stroke="blue" x1="105.71428571428571" x2="108.57142857142857" y1="58.57142857142857" y2="61.42857142857143" /><line fill="none" stroke="blue" x1="108.57142857142857" x2="111.42857142857143" y1="61.42857142857143" y2="62.85714285714286" /><line fill="none" stroke="blue" x1="111.42857142857143" x2="115.71428571428572" y1="62.85714285714286" y2="62.85714285714286" /><line fill="none" stroke="blue" x1="115.71428571428572" x2="118.57142857142857" y1="62.85714285714286" y2="61.42857142857143" /><line fill="none" stroke="blue" x1="118.57142857142857" x2="121.42857142857143" y1="61.42857142857143" y2="58.57142857142857" /><line fill="none" stroke="blue" x1="121.42857142857143" x2="122.85714285714286" y1="58.57142857142857" y2="54.285714285714285" /><line fill="none" stroke="blue" x1="122.85714285714286" x2="122.85714285714286" y1="54.285714285714285" y2="51.42857142857143" /><line fill="none" stroke="blue" x1="122.85714285714286" x2="121.42857142857143" y1="51.42857142857143" y2="47.142857142857146" /><line fill="none" stroke="blue" x1="121.42857142857143" x2="118.57142857142857" y1="47.142857142857146" y2="44.285714285714285" /><line fill="none" stroke="blue" x1="118.57142857142857" x2="115.71428571428572" y1="44.285714285714285" y2="42.857142857142854" /><line fill="none" stroke="blue" x1="115.71428571428572" x2="111.42857142857143" y1="42.857142857142854" y2="42.857142857142854" /></svg>