<?xml version="1.0" encoding="utf-8" ?>
<svg baseProfile="full" height="100" version="1.1" width="500" xmlns="http://www.w3.org/2000/svg" xmlns:ev="http://www.w3.org/2001/xml-events" xmlns:xlink="http://www.w3.org/1999/xlink"><defs /><polyline fill="none" points="53.214285714285715,35.714285714285715 52.142857142857146,36.07142857142857 51.42857142857143,37.142857142857146 51.07142857142857,38.92857142857143 51.07142857142857,40.0 51.42857142857143,41.785714285714285 52.142857142857146,42.857142857142854 53.214285714285715,43.214285714285715 53.92857142857143,43.214285714285715 55.0,42.857142857142854 55.714285714285715,41.785714285714285 56.07142857142857,40.0 56.07142857142857,38.92857142857143 55.714285714285715,37.142857142857146 55.0,36.07142857142857 53.92857142857143,35.714285714285715 53.214285714285715,35.714285714285715" stroke="blue" /><polyline fill="none" points="58.57142857142858,41.42857142857143 58.214285714285715,41.785714285714285 58.57142857142858,42.142857142857146 58.92857142857143,41.785714285714285 58.57142857142858,41.42857142857143" stroke="blue" /><polyline fill="none" points="62.142857142857146,37.142857142857146 62.857142857142854,36.785714285714285 63.92857142857143,35.714285714285715 63.92857142857143,43.214285714285715" stroke="blue" /><polyline fill="none" points="68.57142857142857,37.5 68.57142857142857,37.142857142857146 68.92857142857143,36.42857142857143 69.28571428571428,36.07142857142857 70.0,35.714285714285715 71.42857142857143,35.714285714285715 72.14285714285714,36.07142857142857 72.5,36.42857142857143 72.85714285714285,37.142857142857146 72.85714285714285,37.857142857142854 72.5,38.57142857142857 71.78571428571428,39.642857142857146 68.21428571428571,43.214285714285715 73.21428571428571,43.214285714285715" stroke="blue" /><polyline fill="none" points="76.07142857142857,35.714285714285715 79.99999999999999,35.714285714285715 77.85714285714285,38.57142857142857 78.92857142857142,38.57142857142857 79.64285714285714,38.92857142857143 79.99999999999999,39.285714285714285 80.35714285714285,40.357142857142854 80.35714285714285,41.07142857142857 79.99999999999999,42.142857142857146 79.28571428571428,42.857142857142854 78.21428571428571,43.214285714285715 77.14285714285714,43.214285714285715 76.07142857142857,42.857142857142854 75.71428571428571,42.5 75.35714285714285,41.785714285714285" stroke="blue" /></svg>